<svg xmlns="http://www.w3.org/2000/svg" width="69" height="76" viewBox="0 0 69 76"><g><g><path fill="#78b8e4" d="M69 74.72A1.28 1.28 0 0 1 67.722 76H1.278A1.28 1.28 0 0 1 0 74.72c0-.707.572-1.28 1.278-1.28h2.13V25.19a1.28 1.28 0 0 1 1.277-1.28h10.649V13.235c0-.708.572-1.28 1.277-1.28h3.834V6.403c0-.707.572-1.28 1.277-1.28h5.537V1.28A1.28 1.28 0 0 1 28.537 0a1.28 1.28 0 0 1 1.278 1.281v3.843h5.537c.706 0 1.278.573 1.278 1.28v5.551h2.555v-5.55c0-.708.572-1.281 1.278-1.281h23.852c.705 0 1.278.573 1.278 1.28V73.44h2.13c.705 0 1.277.573 1.277 1.28zM23 11.954h11.074v-4.27H23zM18.74 69.17h-4.258v4.27h.851v-2.135a1.28 1.28 0 0 1 1.278-1.281 1.28 1.28 0 0 1 1.278 1.28v2.136h.852zm8.52-42.697H5.962v46.967h5.963v-5.551a1.28 1.28 0 0 1 1.278-1.281h6.815a1.28 1.28 0 0 1 1.277 1.28v5.552h5.963zm2.555-1.28v.426h3.833a1.28 1.28 0 0 1 1.278 1.281c0 .708-.572 1.28-1.278 1.28h-3.833v4.27h3.833a1.28 1.28 0 0 1 1.278 1.281 1.28 1.28 0 0 1-1.278 1.281h-3.833v4.27h9.37V14.516H17.89v9.394h10.648a1.28 1.28 0 0 1 1.278 1.281zm21.296 16.65H29.815V73.44H51.11zM63.037 73.44V7.685H41.741v31.596H46v-.427a1.28 1.28 0 0 1 1.277-1.281 1.28 1.28 0 0 1 1.278 1.28v.428h2.555v-.427a1.28 1.28 0 0 1 1.278-1.281 1.28 1.28 0 0 1 1.278 1.28V73.44zm-28.963-3.843v-23.91a1.28 1.28 0 0 1 1.278-1.281 1.28 1.28 0 0 1 1.278 1.28v23.91a1.28 1.28 0 0 1-1.278 1.282 1.28 1.28 0 0 1-1.278-1.281zm5.111 0v-23.91a1.28 1.28 0 0 1 1.278-1.281 1.28 1.28 0 0 1 1.278 1.28v23.91a1.28 1.28 0 0 1-1.278 1.282 1.28 1.28 0 0 1-1.278-1.281zm5.111 0v-23.91a1.28 1.28 0 0 1 1.278-1.281 1.28 1.28 0 0 1 1.278 1.28v23.91a1.28 1.28 0 0 1-1.278 1.282 1.28 1.28 0 0 1-1.278-1.281zM46 14.944v-1.708c0-.708.572-1.28 1.278-1.28a1.28 1.28 0 0 1 1.278 1.28v1.708a1.28 1.28 0 0 1-1.278 1.28A1.28 1.28 0 0 1 46 14.945zm5.111 0v-1.708c0-.708.572-1.28 1.278-1.28a1.28 1.28 0 0 1 1.278 1.28v1.708a1.28 1.28 0 0 1-1.278 1.28 1.28 1.28 0 0 1-1.278-1.28zm5.111 0v-1.708c0-.708.572-1.28 1.278-1.28a1.28 1.28 0 0 1 1.278 1.28v1.708a1.28 1.28 0 0 1-1.278 1.28 1.28 1.28 0 0 1-1.278-1.28zM46 23.484v-1.71a1.279 1.279 0 1 1 2.556 0v1.71a1.279 1.279 0 1 1-2.556 0zm5.111 0v-1.71a1.279 1.279 0 1 1 2.556 0v1.71a1.279 1.279 0 1 1-2.556 0zm5.111 0v-1.71a1.279 1.279 0 1 1 2.556 0v1.71a1.279 1.279 0 1 1-2.556 0zM46 32.021v-1.708c0-.707.572-1.28 1.278-1.28a1.28 1.28 0 0 1 1.278 1.28v1.708a1.28 1.28 0 0 1-1.278 1.281A1.28 1.28 0 0 1 46 32.023zm5.111 0v-1.708c0-.707.572-1.28 1.278-1.28a1.28 1.28 0 0 1 1.278 1.28v1.708a1.28 1.28 0 0 1-1.278 1.281 1.28 1.28 0 0 1-1.278-1.28zm5.111 0v-1.708c0-.707.572-1.28 1.278-1.28a1.28 1.28 0 0 1 1.278 1.28v1.708a1.28 1.28 0 0 1-1.278 1.281 1.28 1.28 0 0 1-1.278-1.28zm-46 3.416V33.73a1.28 1.28 0 0 1 1.278-1.28 1.28 1.28 0 0 1 1.278 1.28v1.708a1.28 1.28 0 0 1-1.278 1.281 1.28 1.28 0 0 1-1.278-1.281zm5.111 0V33.73a1.28 1.28 0 0 1 1.278-1.28 1.28 1.28 0 0 1 1.278 1.28v1.708a1.28 1.28 0 0 1-1.278 1.281 1.28 1.28 0 0 1-1.278-1.281zm5.111 0V33.73a1.28 1.28 0 0 1 1.278-1.28A1.28 1.28 0 0 1 23 33.73v1.708a1.28 1.28 0 0 1-1.278 1.281 1.28 1.28 0 0 1-1.278-1.281zm-10.222 8.54V42.27c0-.708.572-1.28 1.278-1.28a1.28 1.28 0 0 1 1.278 1.28v1.708c0 .707-.572 1.28-1.278 1.28a1.28 1.28 0 0 1-1.278-1.28zm5.111 0V42.27c0-.708.573-1.28 1.278-1.28a1.28 1.28 0 0 1 1.278 1.28v1.708a1.28 1.28 0 0 1-1.278 1.28 1.279 1.279 0 0 1-1.278-1.28zm5.111 0V42.27c0-.708.573-1.28 1.278-1.28A1.28 1.28 0 0 1 23 42.27v1.708c0 .707-.572 1.28-1.278 1.28a1.28 1.28 0 0 1-1.278-1.28zm-10.222 8.539v-1.708a1.28 1.28 0 0 1 1.278-1.281 1.28 1.28 0 0 1 1.278 1.281v1.708a1.279 1.279 0 1 1-2.556 0zm5.111 0v-1.708a1.28 1.28 0 0 1 1.278-1.281 1.28 1.28 0 0 1 1.278 1.281v1.708a1.279 1.279 0 1 1-2.556 0zm5.111 0v-1.708a1.28 1.28 0 0 1 1.278-1.281A1.28 1.28 0 0 1 23 50.809v1.708a1.279 1.279 0 1 1-2.556 0zm-10.222 8.539v-1.708a1.279 1.279 0 0 1 2.555 0v1.708a1.28 1.28 0 0 1-1.277 1.281 1.28 1.28 0 0 1-1.278-1.281zm5.111 0v-1.708a1.279 1.279 0 1 1 2.556 0v1.708a1.28 1.28 0 0 1-1.278 1.281 1.28 1.28 0 0 1-1.278-1.281zm5.111 0v-1.708a1.279 1.279 0 0 1 2.555 0v1.708a1.28 1.28 0 0 1-1.277 1.281 1.28 1.28 0 0 1-1.278-1.281zm35.778-20.494v-1.708a1.28 1.28 0 0 1 1.278-1.281 1.28 1.28 0 0 1 1.278 1.28v1.709a1.279 1.279 0 1 1-2.556 0zm0 8.54v-1.709c0-.707.572-1.28 1.278-1.28a1.28 1.28 0 0 1 1.278 1.28v1.709a1.279 1.279 0 1 1-2.556 0zm0 8.538v-1.707A1.28 1.28 0 0 1 57.5 54.65a1.28 1.28 0 0 1 1.278 1.282v1.707a1.279 1.279 0 1 1-2.556 0zm0 8.54v-1.708a1.28 1.28 0 0 1 1.278-1.281 1.28 1.28 0 0 1 1.278 1.281v1.708a1.279 1.279 0 0 1-2.555 0zM33.648 21.35H23.426a1.28 1.28 0 0 1-1.278-1.281 1.28 1.28 0 0 1 1.278-1.281h10.222a1.28 1.28 0 0 1 1.278 1.28 1.28 1.28 0 0 1-1.278 1.282z"/></g></g></svg>