<svg xmlns="http://www.w3.org/2000/svg" width="20" height="15">
    <path fill="#696969" fill-rule="evenodd" d="M17.554 15H2.446C1.097 15 0 13.919 0 12.59V2.411C0 1.08 1.097 0 2.446 0h15.112C18.907 0 20.004 1.085 20 2.414V12.59c0 1.329-1.097 2.41-2.446 2.41zm1.328-2.41V2.414c0-.722-.596-1.309-1.328-1.309H2.446c-.733 0-1.329.587-1.329 1.309V12.59c0 .722.596 1.308 1.329 1.308h15.112c.733 0 1.329-.586 1.329-1.308h-.005zm-1.336.158c-.112.115-.257.173-.406.173-.136 0-.277-.05-.385-.152l-4.974-4.657-1.394 1.231c-.104.094-.24.143-.373.143-.132 0-.264-.045-.372-.138L8.285 8.153l-5.003 4.612c-.108.098-.245.146-.381.146-.149 0-.298-.06-.41-.174-.211-.225-.198-.571.025-.779L7.445 7.41l-4.95-4.359c-.232-.204-.252-.551-.045-.78.207-.228.558-.248.79-.044l5.355 4.722c.033.025.062.049.091.078 0 .004.004.008.008.012l1.316 1.159 6.745-5.967c.232-.204.584-.184.791.04.207.229.186.576-.042.78l-4.891 4.323 4.912 4.595c.224.209.232.56.021.779z"/>
</svg>
