<svg xmlns="http://www.w3.org/2000/svg" width="15" height="15">
    <path fill="#696969" fill-rule="evenodd" d="M14.55 7.262c-.248 0-.45-.201-.45-.45 0-1.579-.615-3.064-1.732-4.181C11.251 1.515 9.767.9 8.187.9c-.248 0-.45-.202-.45-.45 0-.249.202-.45.45-.45 1.82 0 3.531.709 4.818 1.996C14.291 3.282 15 4.993 15 6.813c0 .248-.202.449-.45.449zM8.188 4.564c.609 0 1.158.227 1.589.658.431.431.659.981.659 1.59 0 .249-.202.45-.45.45-.249 0-.45-.201-.45-.45 0-.366-.137-.695-.395-.953-.262-.262-.583-.395-.953-.395-.249 0-.45-.202-.45-.45 0-.249.201-.45.45-.45zm0-2.281c1.21 0 2.347.47 3.203 1.326.856.856 1.327 1.994 1.327 3.203 0 .249-.202.45-.45.45-.249 0-.45-.201-.45-.45 0-.969-.377-1.881-1.063-2.567-.686-.686-1.598-1.064-2.567-1.064-.249 0-.45-.201-.45-.449 0-.249.201-.449.45-.449zM5.439 5.545c-.175.176-.405.264-.636.264-.084 0-.168-.013-.25-.035l-.288.288c-.205.205.11 1.48 1.651 3.021 1.542 1.543 2.817 1.857 3.022 1.652l.289-.289c-.088-.304-.012-.646.227-.885l.765-.765c.351-.351.921-.351 1.272 0l2.939 2.939c.351.351.351.922 0 1.273l-.764.764c-.17.17-.396.264-.636.264-.086 0-.17-.013-.25-.036l-.161.16c-.557.557-1.334.84-2.266.84-.568 0-1.194-.105-1.863-.318-1.666-.527-3.431-1.664-4.969-3.203C1.982 9.941.845 8.176.317 6.51-.222 4.809-.07 3.386.743 2.482.756 2.467 1 2.22 1 2.22c-.087-.305-.012-.647.228-.886L1.992.57c.17-.17.396-.264.636-.264.241 0 .467.094.637.264l2.939 2.939c.35.351.35.922 0 1.272l-.765.764zm7.591 7.591l.764-.765-2.939-2.939-.765.765 2.94 2.939zM1.476 3.017c-.648.647-.755 1.791-.301 3.222.485 1.53 1.544 3.165 2.982 4.604 1.438 1.438 3.074 2.497 4.604 2.982 1.431.454 2.575.347 3.222-.301l.081-.081-2.281-2.281-.209.209c-.218.219-.505.316-.836.316-.983 0-2.353-.861-3.458-1.967-1.477-1.477-2.519-3.426-1.652-4.294l.001-.001.209-.208-2.281-2.282-.081.082zm1.152-1.811l-.764.764 1.47 1.47 1.458 1.458.011.012h.001l.764-.765-2.94-2.939z"/>
</svg>
