<svg xmlns="http://www.w3.org/2000/svg" width="67" height="67" viewBox="0 0 67 67"><g><g><path fill="#e478ad" d="M62.533 35.7c0 .67-.446 1.117-1.116 1.117-.67 0-1.117-.447-1.117-1.117 0-.559.558-1.117 1.117-1.117.67 0 1.116.447 1.116 1.117zm1.117-3.35c0-.559.558-1.117 1.117-1.117v-4.467c-.67 0-1.117-.446-1.117-1.116 0-.558.558-1.116 1.117-1.116v-4.468c-.67 0-1.117-.446-1.117-1.116 0-.558.558-1.117 1.117-1.117v-4.467c-.67 0-1.117-.446-1.117-1.116 0-.558.558-1.117 1.117-1.117V6.666c-.67 0-1.117-.446-1.117-1.116 0-.558.558-1.116 1.117-1.116v-2.2h-2.234c-.015.651-.458 1.083-1.116 1.083-.659 0-1.102-.432-1.117-1.084h-4.467c-.015.652-.458 1.084-1.116 1.084-.66 0-1.102-.432-1.117-1.084h-4.467c-.015.652-.458 1.084-1.116 1.084-.659 0-1.102-.432-1.117-1.084h-4.467c-.015.652-.458 1.084-1.117 1.084-.658 0-1.1-.432-1.116-1.084h-4.467c-.015.652-.458 1.083-1.116 1.084v4.466c.67 0 1.116.447 1.116 1.117 0 .67-.446 1.117-1.116 1.117v4.466c.67 0 1.116.447 1.116 1.117 0 .67-.446 1.116-1.116 1.116v4.467c.67 0 1.116.447 1.116 1.117 0 .67-.446 1.116-1.116 1.116v4.467c.67 0 1.116.447 1.116 1.117 0 .67-.446 1.117-1.116 1.117v4.466c.67 0 1.116.447 1.116 1.117 0 .67-.446 1.116-1.116 1.117v.033h26.8c.086 0 .172.003.259.009.038.002.075.006.113.01l.134.013a4.566 4.566 0 0 1 .232.036c.275.05.544.126.805.228l.062.024c.05.021.101.043.151.066l.1.046c.042.021.084.04.125.062.044.023.088.048.131.072l.098.055a5.52 5.52 0 0 1 1.14.912v-4.917c-.67 0-1.117-.446-1.117-1.116zm-4.467 0c0 .67-.446 1.116-1.116 1.116-.67 0-1.117-.446-1.117-1.116 0-.559.558-1.117 1.117-1.117.67 0 1.116.447 1.116 1.117zm-3.35 3.35c0 .67-.446 1.117-1.116 1.117-.67 0-1.117-.447-1.117-1.117 0-.559.558-1.117 1.117-1.117.67 0 1.116.447 1.116 1.117zm-6.7 0c0 .67-.446 1.117-1.116 1.117-.67 0-1.117-.447-1.117-1.117 0-.559.558-1.117 1.117-1.117.67 0 1.116.447 1.116 1.117zm3.35-3.35c0 .67-.446 1.116-1.116 1.116-.67 0-1.117-.446-1.117-1.116 0-.559.558-1.117 1.117-1.117.67 0 1.116.447 1.116 1.117zm-6.7 0c0 .67-.447 1.116-1.116 1.116-.67 0-1.117-.446-1.117-1.116 0-.559.558-1.117 1.117-1.117.67 0 1.116.447 1.116 1.117zm-3.35 3.35c0 .67-.446 1.117-1.116 1.117-.67 0-1.117-.447-1.117-1.117 0-.559.558-1.117 1.117-1.117.67 0 1.116.447 1.116 1.117zm-3.35-3.35c0 .67-.446 1.116-1.116 1.116-.67 0-1.117-.446-1.117-1.116 0-.559.558-1.117 1.117-1.117.67 0 1.116.447 1.116 1.117zM62.533 29c0 .67-.446 1.117-1.116 1.117-.67 0-1.117-.447-1.117-1.117 0-.559.558-1.117 1.117-1.117.67 0 1.116.447 1.116 1.117zm0-6.7c0 .67-.446 1.116-1.116 1.116-.67 0-1.117-.446-1.117-1.116 0-.558.558-1.117 1.117-1.117.67 0 1.116.447 1.116 1.117zm-3.35 3.35c0 .67-.446 1.116-1.116 1.116-.67 0-1.117-.446-1.117-1.116 0-.558.558-1.116 1.117-1.116.67 0 1.116.446 1.116 1.116zM55.833 29c0 .67-.446 1.117-1.116 1.117-.67 0-1.117-.447-1.117-1.117 0-.559.558-1.117 1.117-1.117.67 0 1.116.447 1.116 1.117zm-6.7 0c0 .67-.446 1.117-1.116 1.117-.67 0-1.117-.447-1.117-1.117 0-.559.558-1.117 1.117-1.117.67 0 1.116.447 1.116 1.117zm6.7-6.7c0 .67-.446 1.116-1.116 1.116-.67 0-1.117-.446-1.117-1.116 0-.558.558-1.117 1.117-1.117.67 0 1.116.447 1.116 1.117zm-6.7 0c0 .67-.446 1.116-1.116 1.116-.67 0-1.117-.446-1.117-1.116 0-.558.558-1.117 1.117-1.117.67 0 1.116.447 1.116 1.117zm3.35 3.35c0 .67-.446 1.116-1.116 1.116-.67 0-1.117-.446-1.117-1.116 0-.558.558-1.116 1.117-1.116.67 0 1.116.446 1.116 1.116zm-6.7 0c0 .67-.447 1.116-1.116 1.116-.67 0-1.117-.446-1.117-1.116 0-.558.558-1.116 1.117-1.116.67 0 1.116.446 1.116 1.116zM42.433 29c0 .67-.446 1.117-1.116 1.117-.67 0-1.117-.447-1.117-1.117 0-.559.558-1.117 1.117-1.117.67 0 1.116.447 1.116 1.117zm0-6.7c0 .67-.446 1.116-1.116 1.116-.67 0-1.117-.446-1.117-1.116 0-.558.558-1.117 1.117-1.117.67 0 1.116.447 1.116 1.117zm-3.35 3.35c0 .67-.446 1.116-1.116 1.116-.67 0-1.117-.446-1.117-1.116 0-.558.558-1.116 1.117-1.116.67 0 1.116.446 1.116 1.116zm23.45-10.05c0 .67-.446 1.116-1.116 1.116-.67 0-1.117-.446-1.117-1.116 0-.559.558-1.117 1.117-1.117.67 0 1.116.446 1.116 1.117zm-3.35 3.35c0 .67-.446 1.116-1.116 1.116-.67 0-1.117-.446-1.117-1.116 0-.558.558-1.117 1.117-1.117.67 0 1.116.447 1.116 1.117zm0-6.7c0 .67-.446 1.116-1.116 1.116-.67 0-1.117-.446-1.117-1.116 0-.558.558-1.117 1.117-1.117.67 0 1.116.447 1.116 1.117zm-3.35 3.35c0 .67-.446 1.116-1.116 1.116-.67 0-1.117-.446-1.117-1.116 0-.559.558-1.117 1.117-1.117.67 0 1.116.446 1.116 1.117zm-6.7 0c0 .67-.446 1.116-1.116 1.116-.67 0-1.117-.446-1.117-1.116 0-.559.558-1.117 1.117-1.117.67 0 1.116.446 1.116 1.117zm3.35 3.35c0 .67-.446 1.116-1.116 1.116-.67 0-1.117-.446-1.117-1.116 0-.558.558-1.117 1.117-1.117.67 0 1.116.447 1.116 1.117zm-6.7 0c0 .67-.447 1.116-1.116 1.116-.67 0-1.117-.446-1.117-1.116 0-.558.558-1.117 1.117-1.117.67 0 1.116.447 1.116 1.117zm6.7-6.7c0 .67-.446 1.116-1.116 1.116-.67 0-1.117-.446-1.117-1.116 0-.558.558-1.117 1.117-1.117.67 0 1.116.447 1.116 1.117zm-6.7 0c0 .67-.447 1.116-1.116 1.116-.67 0-1.117-.446-1.117-1.116 0-.558.558-1.117 1.117-1.117.67 0 1.116.447 1.116 1.117zm-3.35 3.35c0 .67-.446 1.116-1.116 1.116-.67 0-1.117-.446-1.117-1.116 0-.559.558-1.117 1.117-1.117.67 0 1.116.446 1.116 1.117zm-3.35 3.35c0 .67-.446 1.116-1.116 1.116-.67 0-1.117-.446-1.117-1.116 0-.558.558-1.117 1.117-1.117.67 0 1.116.447 1.116 1.117zm0-6.7c0 .67-.446 1.116-1.116 1.116-.67 0-1.117-.446-1.117-1.116 0-.558.558-1.117 1.117-1.117.67 0 1.116.447 1.116 1.117zm23.45-3.35c0 .67-.446 1.117-1.116 1.117-.67 0-1.117-.448-1.117-1.117 0-.559.558-1.117 1.117-1.117.67 0 1.116.447 1.116 1.117zm-3.35-3.35c0 .67-.446 1.116-1.116 1.116-.67 0-1.117-.446-1.117-1.116 0-.558.558-1.116 1.117-1.116.67 0 1.116.446 1.116 1.116zm-3.35 3.35c0 .67-.446 1.117-1.116 1.117-.67 0-1.117-.448-1.117-1.117 0-.559.558-1.117 1.117-1.117.67 0 1.116.447 1.116 1.117zm-6.7 0c0 .67-.446 1.117-1.116 1.117-.67 0-1.117-.448-1.117-1.117 0-.559.558-1.117 1.117-1.117.67 0 1.116.447 1.116 1.117zm3.35-3.35c0 .67-.446 1.116-1.116 1.116-.67 0-1.117-.446-1.117-1.116 0-.558.558-1.116 1.117-1.116.67 0 1.116.446 1.116 1.116zm-6.7 0c0 .67-.447 1.116-1.116 1.116-.67 0-1.117-.446-1.117-1.116 0-.558.558-1.116 1.117-1.116.67 0 1.116.446 1.116 1.116zm-3.35 3.35c0 .67-.446 1.117-1.116 1.117-.67 0-1.117-.448-1.117-1.117 0-.559.558-1.117 1.117-1.117.67 0 1.116.447 1.116 1.117zm-3.35-3.35c0 .67-.446 1.116-1.116 1.116-.67 0-1.117-.446-1.117-1.116 0-.558.558-1.116 1.117-1.116.67 0 1.116.446 1.116 1.116zM67 1.116v43.55c0 4.355-2.457 7.817-5.583 7.817h-26.8v13.4c0 .67-.447 1.117-1.117 1.117H1.117C.447 67 0 66.553 0 65.883V1.116C0 .447.447 0 1.117 0h64.766C66.553 0 67 .447 67 1.116zM29.033 50.25h28.45c-1.023-1.413-1.65-3.384-1.65-5.583 0-2.2.627-4.171 1.65-5.584h-28.45c-1.396 0-2.655 1.568-3.14 3.691a8.531 8.531 0 0 0-.21 1.893c0 1.224.258 2.375.685 3.31.622 1.367 1.604 2.273 2.665 2.273zm3.35 14.516V52.483h-3.35c-3.126 0-5.583-3.462-5.583-7.816 0-4.355 2.457-7.817 5.583-7.817h3.35V2.233H2.233v62.534zm32.384-20.1c0-.974-.164-1.9-.446-2.71-.589-1.695-1.695-2.873-2.904-2.873h-.003c-1.395.002-2.653 1.57-3.137 3.691a8.531 8.531 0 0 0-.21 1.893c0 1.224.258 2.375.684 3.31.623 1.367 1.605 2.273 2.666 2.273 1.786 0 3.35-2.569 3.35-5.583z"/></g></g></svg>