<?xml version="1.0" standalone="no"?>
<!DOCTYPE svg PUBLIC "-//W3C//DTD SVG 20010904//EN"
 "http://www.w3.org/TR/2001/REC-SVG-20010904/DTD/svg10.dtd">
<svg version="1.0" xmlns="http://www.w3.org/2000/svg"
 width="512.000000pt" height="512.000000pt" viewBox="0 0 512.000000 512.000000"
 preserveAspectRatio="xMidYMid meet">
<metadata>
Created by potrace 1.11, written by Peter Selinger 2001-2013
</metadata>
<g transform="translate(0.000000,512.000000) scale(0.100000,-0.100000)"
fill="#000000" stroke="none">
<path d="M1352 3699 l-1202 -1200 22 -27 c13 -15 80 -83 150 -151 l126 -123
94 93 93 93 3 -872 2 -872 1920 0 1920 0 2 872 3 872 93 -94 93 -93 151 150
150 150 -353 352 -353 353 0 639 0 639 -317 0 c-245 0 -318 -3 -320 -12 -2 -7
-4 -151 -4 -320 l0 -307 -527 527 c-290 290 -531 528 -535 529 -5 2 -550 -537
-1211 -1198z"/>
</g>
</svg>
